SolidWorks IGES file using analytic representation for surfaces         S      1
1H,,1H;,9HDowel Pin,101H\\192.168.1.5\Heat Exchangers\Running Projects\BG      1
EL - S HPA\RAPL Drawing Files\3D models\Dowel Pin.IGS,15HSolidWorks 2024G      2
,15HSolidWorks 2024,32,308,15,308,15,9HDowel Pin,1.,2,2HMM,50,0.125,13H2G      3
50514.093715,1E-08,499990.,2HHP,,11,0,13H250514.093715;                 G      4
     314       1       0       0       0                        00000200D      1
     314       0       8       1       0                               0D      2
     110       2       0       0       0                        01010000D      3
     110       0       0       1       0                               0D      4
     110       3       0       0       0                        01010000D      5
     110       0       0       1       0                               0D      6
     120       4       0       0       0                        01010000D      7
     120       0       0       1       0                               0D      8
     126       5       0       0       0                        01010500D      9
     126       0       0       2       0                               0D     10
     100       7       0       0       0                        01010000D     11
     100       0       0       1       0                               0D     12
     126       8       0       0       0                        01010500D     13
     126       0       0       2       0                               0D     14
     110      10       0       0       0                        01010000D     15
     110       0       0       1       0                               0D     16
     126      11       0       0       0                        01010500D     17
     126       0       0       2       0                               0D     18
     124      13       0       0       0                        00000000D     19
     124       0       0       5       0                               0D     20
     100      18       0       0       0              19        01010000D     21
     100       0       0       1       0                               0D     22
     126      19       0       0       0                        01010500D     23
     126       0       0       2       0                               0D     24
     110      21       0       0       0                        01010000D     25
     110       0       0       1       0                               0D     26
     102      22       0       0       0                        01010500D     27
     102       0       0       1       0                               0D     28
     102      23       0       0       0                        01010000D     29
     102       0       0       1       0                               0D     30
     142      24       0       0       0                        00010500D     31
     142       0       0       1       0                               0D     32
     144      25       0       0       0                        00000000D     33
     144       0      -1       1       0                               0D     34
     110      26       0       0       0                        01010000D     35
     110       0       0       1       0                               0D     36
     110      27       0       0       0                        01010000D     37
     110       0       0       1       0                               0D     38
     120      28       0       0       0                        01010000D     39
     120       0       0       1       0                               0D     40
     126      29       0       0       0                        01010500D     41
     126       0       0       2       0                               0D     42
     124      31       0       0       0                        00000000D     43
     124       0       0       4       0                               0D     44
     100      35       0       0       0              43        01010000D     45
     100       0       0       1       0                               0D     46
     126      36       0       0       0                        01010500D     47
     126       0       0       2       0                               0D     48
     110      38       0       0       0                        01010000D     49
     110       0       0       1       0                               0D     50
     126      39       0       0       0                        01010500D     51
     126       0       0       2       0                               0D     52
     100      41       0       0       0                        01010000D     53
     100       0       0       1       0                               0D     54
     126      42       0       0       0                        01010500D     55
     126       0       0       2       0                               0D     56
     110      44       0       0       0                        01010000D     57
     110       0       0       1       0                               0D     58
     102      45       0       0       0                        01010500D     59
     102       0       0       1       0                               0D     60
     102      46       0       0       0                        01010000D     61
     102       0       0       1       0                               0D     62
     142      47       0       0       0                        00010500D     63
     142       0       0       1       0                               0D     64
     144      48       0       0       0                        00000000D     65
     144       0      -1       1       0                               0D     66
     110      49       0       0       0                        01010000D     67
     110       0       0       1       0                               0D     68
     110      50       0       0       0                        01010000D     69
     110       0       0       1       0                               0D     70
     120      51       0       0       0                        01010000D     71
     120       0       0       1       0                               0D     72
     126      52       0       0       0                        01010500D     73
     126       0       0       2       0                               0D     74
     124      54       0       0       0                        00000000D     75
     124       0       0       4       0                               0D     76
     100      58       0       0       0              75        01010000D     77
     100       0       0       1       0                               0D     78
     126      59       0       0       0                        01010500D     79
     126       0       0       2       0                               0D     80
     110      61       0       0       0                        01010000D     81
     110       0       0       1       0                               0D     82
     126      62       0       0       0                        01010500D     83
     126       0       0       2       0                               0D     84
     100      64       0       0       0                        01010000D     85
     100       0       0       1       0                               0D     86
     126      65       0       0       0                        01010500D     87
     126       0       0       2       0                               0D     88
     110      67       0       0       0                        01010000D     89
     110       0       0       1       0                               0D     90
     102      68       0       0       0                        01010500D     91
     102       0       0       1       0                               0D     92
     102      69       0       0       0                        01010000D     93
     102       0       0       1       0                               0D     94
     142      70       0       0       0                        00010500D     95
     142       0       0       1       0                               0D     96
     144      71       0       0       0                        00000000D     97
     144       0      -1       1       0                               0D     98
     110      72       0       0       0                        01010000D     99
     110       0       0       1       0                               0D    100
     110      73       0       0       0                        01010000D    101
     110       0       0       1       0                               0D    102
     120      74       0       0       0                        01010000D    103
     120       0       0       1       0                               0D    104
     126      75       0       0       0                        01010500D    105
     126       0       0       2       0                               0D    106
     110      77       0       0       0                        01010000D    107
     110       0       0       1       0                               0D    108
     126      78       0       0       0                        01010500D    109
     126       0       0       2       0                               0D    110
     124      80       0       0       0                        00000000D    111
     124       0       0       3       0                               0D    112
     100      83       0       0       0             111        01010000D    113
     100       0       0       1       0                               0D    114
     126      84       0       0       0                        01010500D    115
     126       0       0       2       0                               0D    116
     110      86       0       0       0                        01010000D    117
     110       0       0       1       0                               0D    118
     126      87       0       0       0                        01010500D    119
     126       0       0       2       0                               0D    120
     100      89       0       0       0                        01010000D    121
     100       0       0       1       0                               0D    122
     102      90       0       0       0                        01010500D    123
     102       0       0       1       0                               0D    124
     102      91       0       0       0                        01010000D    125
     102       0       0       1       0                               0D    126
     142      92       0       0       0                        00010500D    127
     142       0       0       1       0                               0D    128
     144      93       0       0       0                        00000000D    129
     144       0      -1       1       0                               0D    130
     128      94       0       0       0                        01010000D    131
     128       0       0       3       0                               0D    132
     126      97       0       0       0                        01010500D    133
     126       0       0      22       0                               0D    134
     100     119       0       0       0                        01010000D    135
     100       0       0       1       0                               0D    136
     126     120       0       0       0                        01010500D    137
     126       0       0      22       0                               0D    138
     100     142       0       0       0                        01010000D    139
     100       0       0       1       0                               0D    140
     102     143       0       0       0                        01010500D    141
     102       0       0       1       0                               0D    142
     102     144       0       0       0                        01010000D    143
     102       0       0       1       0                               0D    144
     142     145       0       0       0                        00010500D    145
     142       0       0       1       0                               0D    146
     144     146       0       0       0                        00000000D    147
     144       0      -1       1       0                               0D    148
     128     147       0       0       0                        01010000D    149
     128       0       0       3       0                               0D    150
     126     150       0       0       0                        01010500D    151
     126       0       0      22       0                               0D    152
     100     172       0       0       0                        01010000D    153
     100       0       0       1       0                               0D    154
     126     173       0       0       0                        01010500D    155
     126       0       0      22       0                               0D    156
     100     195       0       0       0                        01010000D    157
     100       0       0       1       0                               0D    158
     102     196       0       0       0                        01010500D    159
     102       0       0       1       0                               0D    160
     102     197       0       0       0                        01010000D    161
     102       0       0       1       0                               0D    162
     142     198       0       0       0                        00010500D    163
     142       0       0       1       0                               0D    164
     144     199       0       0       0                        00000000D    165
     144       0      -1       1       0                               0D    166
     110     200       0       0       0                        01010000D    167
     110       0       0       1       0                               0D    168
     110     201       0       0       0                        01010000D    169
     110       0       0       1       0                               0D    170
     120     202       0       0       0                        01010000D    171
     120       0       0       1       0                               0D    172
     126     203       0       0       0                        01010500D    173
     126       0       0       2       0                               0D    174
     110     205       0       0       0                        01010000D    175
     110       0       0       1       0                               0D    176
     126     206       0       0       0                        01010500D    177
     126       0       0       2       0                               0D    178
     124     208       0       0       0                        00000000D    179
     124       0       0       3       0                               0D    180
     100     211       0       0       0             179        01010000D    181
     100       0       0       1       0                               0D    182
     126     212       0       0       0                        01010500D    183
     126       0       0       2       0                               0D    184
     110     214       0       0       0                        01010000D    185
     110       0       0       1       0                               0D    186
     126     215       0       0       0                        01010500D    187
     126       0       0       2       0                               0D    188
     100     217       0       0       0                        01010000D    189
     100       0       0       1       0                               0D    190
     102     218       0       0       0                        01010500D    191
     102       0       0       1       0                               0D    192
     102     219       0       0       0                        01010000D    193
     102       0       0       1       0                               0D    194
     142     220       0       0       0                        00010500D    195
     142       0       0       1       0                               0D    196
     144     221       0       0       0                        00000000D    197
     144       0      -1       1       0                               0D    198
     110     222       0       0       0                        01010000D    199
     110       0       0       1       0                               0D    200
     110     223       0       0       0                        01010000D    201
     110       0       0       1       0                               0D    202
     120     224       0       0       0                        01010000D    203
     120       0       0       1       0                               0D    204
     126     225       0       0       0                        01010500D    205
     126       0       0       2       0                               0D    206
     110     227       0       0       0                        01010000D    207
     110       0       0       1       0                               0D    208
     126     228       0       0       0                        01010500D    209
     126       0       0       2       0                               0D    210
     100     230       0       0       0                        01010000D    211
     100       0       0       1       0                               0D    212
     126     231       0       0       0                        01010500D    213
     126       0       0       2       0                               0D    214
     110     233       0       0       0                        01010000D    215
     110       0       0       1       0                               0D    216
     126     234       0       0       0                        01010500D    217
     126       0       0       2       0                               0D    218
     124     236       0       0       0                        00000000D    219
     124       0       0       4       0                               0D    220
     100     240       0       0       0             219        01010000D    221
     100       0       0       1       0                               0D    222
     102     241       0       0       0                        01010500D    223
     102       0       0       1       0                               0D    224
     102     242       0       0       0                        01010000D    225
     102       0       0       1       0                               0D    226
     142     243       0       0       0                        00010500D    227
     142       0       0       1       0                               0D    228
     144     244       0       0       0                        00000000D    229
     144       0      -1       1       0                               0D    230
314,79.2156862745098,81.9607843137255,93.3333333333333,;               1P      1
110,0.,0.,-999.5,0.,0.,0.5;                                            3P      2
110,2.,0.,0.,2.5,0.,0.5;                                               5P      3
120,3,5,0.,6.28318530717959;                                           7P      4
126,1,1,1,0,1,0,0.,0.,1.,1.,1.,1.,0.,0.,0.,0.,3.141592654,0.,          9P      5
0.,1.,0.,0.,1.;                                                        9P      6
100,0.,0.,0.,2.,0.,-2.,0.;                                            11P      7
126,1,1,1,0,1,0,0.,0.,1.,1.,1.,1.,0.,3.141592654,0.,1.,               13P      8
3.141592654,0.,0.,1.,0.,0.,1.;                                        13P      9
110,-2.,0.,0.,-2.5,0.,0.5;                                            15P     10
126,1,1,1,0,1,0,0.,0.,1.,1.,1.,1.,1.,3.141592654,0.,1.,0.,0.,         17P     11
0.,1.,0.,0.,1.;                                                       17P     12
124,-1.,-7.22789203751574E-15,8.55166289179392E-31,                   19P     13
-4.27583144589703E-31,-7.22789203751574E-15,1.,                       19P     14
-6.98296267768627E-15,3.49148133884316E-15,                           19P     15
4.96169340471388E-29,-6.98296267768627E-15,-1.,                       19P     16
1.00000000000001;                                                     19P     17
100,0.5,0.,0.,2.5,0.,-2.5,0.;                                         21P     18
126,1,1,1,0,1,0,0.,0.,1.,1.,1.,1.,1.,0.,0.,0.,0.,0.,0.,1.,0.,         23P     19
0.,1.;                                                                23P     20
110,2.5,0.,0.5,2.,0.,0.;                                              25P     21
102,4,9,13,17,23;                                                     27P     22
102,4,11,15,21,25;                                                    29P     23
142,1,7,27,29,1;                                                      31P     24
144,7,1,0,31;                                                         33P     25
110,0.,0.,1030.,0.,0.,30.;                                            35P     26
110,-2.,0.,30.,-2.5,0.,29.5;                                          37P     27
120,35,37,0.,6.28318530717959;                                        39P     28
126,1,1,1,0,1,0,0.,0.,1.,1.,1.,1.,0.,0.,0.,0.,3.141592654,0.,         41P     29
0.,1.,0.,0.,1.;                                                       41P     30
124,-1.,-7.25850820749442E-15,9.62062075326815E-31,                   43P     31
-2.88618622598045E-29,-7.25850820749442E-15,1.,                       43P     32
-6.98296267768627E-15,2.09488880330588E-13,                           43P     33
4.97238298332862E-29,-6.98296267768627E-15,-1.,60.;                   43P     34
100,30.,0.,0.,2.,0.,-2.,0.;                                           45P     35
126,1,1,1,0,1,0,0.,0.,1.,1.,1.,1.,0.,3.141592654,0.,1.,               47P     36
3.141592654,0.,0.,1.,0.,0.,1.;                                        47P     37
110,2.,0.,30.,2.5,0.,29.5;                                            49P     38
126,1,1,1,0,1,0,0.,0.,1.,1.,1.,1.,1.,3.141592654,0.,1.,0.,0.,         51P     39
0.,1.,0.,0.,1.;                                                       51P     40
100,29.5,0.,0.,2.5,0.,-2.5,0.;                                        53P     41
126,1,1,1,0,1,0,0.,0.,1.,1.,1.,1.,1.,0.,0.,0.,0.,0.,0.,1.,0.,         55P     42
0.,1.;                                                                55P     43
110,-2.5,0.,29.5,-2.,0.,30.;                                          57P     44
102,4,41,47,51,55;                                                    59P     45
102,4,45,49,53,57;                                                    61P     46
142,1,39,59,61,1;                                                     63P     47
144,39,1,0,63;                                                        65P     48
110,0.,0.,30.,0.,0.,-970.;                                            67P     49
110,-2.5,0.,29.5,-2.5,0.,0.5;                                         69P     50
120,67,69,0.,6.28318530717959;                                        71P     51
126,1,1,1,0,1,0,0.,0.,1.,1.,1.,1.,0.,0.,0.,0.,3.141592654,0.,         73P     52
0.,1.,0.,0.,1.;                                                       73P     53
124,-1.,-7.22789203751574E-15,8.55166289179392E-31,                   75P     54
-2.52274055307922E-29,-7.22789203751574E-15,1.,                       75P     55
-6.98296267768627E-15,2.05997398991745E-13,                           75P     56
4.96169340471388E-29,-6.98296267768627E-15,-1.,59.;                   75P     57
100,29.5,0.,0.,2.5,0.,-2.5,0.;                                        77P     58
126,1,1,1,0,1,0,0.,0.,1.,1.,1.,1.,0.,3.141592654,0.,1.,               79P     59
3.141592654,0.,0.,1.,0.,0.,1.;                                        79P     60
110,2.5,0.,29.5,2.5,0.,0.5;                                           81P     61
126,1,1,1,0,1,0,0.,0.,1.,1.,1.,1.,1.,3.141592654,0.,1.,0.,0.,         83P     62
0.,1.,0.,0.,1.;                                                       83P     63
100,0.5,0.,0.,2.5,0.,-2.5,0.;                                         85P     64
126,1,1,1,0,1,0,0.,0.,1.,1.,1.,1.,1.,0.,0.,0.,0.,0.,0.,1.,0.,         87P     65
0.,1.;                                                                87P     66
110,-2.5,0.,0.5,-2.5,0.,29.5;                                         89P     67
102,4,73,79,83,87;                                                    91P     68
102,4,77,81,85,89;                                                    93P     69
142,1,71,91,93,1;                                                     95P     70
144,71,1,0,95;                                                        97P     71
110,0.,0.,30.,0.,0.,-970.;                                            99P     72
110,-2.5,0.,29.5,-2.5,0.,0.5;                                        101P     73
120,99,101,0.,6.28318530717959;                                      103P     74
126,1,1,1,0,1,0,0.,0.,1.,1.,1.,1.,1.,3.141592654,0.,0.,              105P     75
3.141592654,0.,0.,1.,0.,0.,1.;                                       105P     76
110,2.5,0.,0.5,2.5,0.,29.5;                                          107P     77
126,1,1,1,0,1,0,0.,0.,1.,1.,1.,1.,0.,3.141592654,0.,0.,              109P     78
6.283185307,0.,0.,1.,0.,0.,1.;                                       109P     79
124,1.,-7.105427357601E-15,0.,0.,-7.105427357601E-15,-1.,            111P     80
6.98296267768627E-15,-2.05997398991745E-13,                          111P     81
-4.96169340471387E-29,-6.98296267768627E-15,-1.,59.;                 111P     82
100,29.5,0.,0.,2.5,0.,-2.5,0.;                                       113P     83
126,1,1,1,0,1,0,0.,0.,1.,1.,1.,1.,0.,6.283185307,0.,1.,              115P     84
6.283185307,0.,0.,1.,0.,0.,1.;                                       115P     85
110,-2.5,0.,29.5,-2.5,0.,0.5;                                        117P     86
126,1,1,1,0,1,0,0.,0.,1.,1.,1.,1.,1.,6.283185307,0.,1.,              119P     87
3.141592654,0.,0.,1.,0.,0.,1.;                                       119P     88
100,0.5,0.,0.,-2.5,0.,2.5,0.;                                        121P     89
102,4,105,109,115,119;                                               123P     90
102,4,107,113,117,121;                                               125P     91
142,1,103,123,125,1;                                                 127P     92
144,103,1,0,127;                                                     129P     93
128,1,1,1,1,0,0,1,0,0,0.,0.,1.,1.,0.,0.,1.,1.,1.,1.,1.,1.,           131P     94
-2.024,-2.024,30.,2.024,-2.024,30.,-2.024,2.024,30.,2.024,           131P     95
2.024,30.,0.,1.,0.,1.;                                               131P     96
126,32,2,1,0,1,0,0.,0.,0.,0.0625,0.0625,0.125,0.125,0.1875,          133P     97
0.1875,0.25,0.25,0.3125,0.3125,0.375,0.375,0.4375,0.4375,0.5,        133P     98
0.5,0.5625,0.5625,0.625,0.625,0.6875,0.6875,0.75,0.75,0.8125,        133P     99
0.8125,0.875,0.875,0.9375,0.9375,1.,1.,1.,1.,1.,1.,1.,1.,1.,1.,      133P    100
1.,1.,1.,1.,1.,1.,1.,1.,1.,1.,1.,1.,1.,1.,1.,1.,1.,1.,1.,1.,1.,      133P    101
1.,1.,1.,1.,1.,0.005928854,0.5,0.,0.005928854,0.451338239,0.,        133P    102
0.015422292,0.403611501,0.,0.024915731,0.355884763,0.,               133P    103
0.04353778,0.310927158,0.,0.06215983,0.265969553,0.,                 133P    104
0.089194856,0.225508778,0.,0.116229881,0.185048003,0.,               133P    105
0.150638942,0.150638942,0.,0.185048003,0.116229881,0.,               133P    106
0.225508778,0.089194856,0.,0.265969553,0.06215983,0.,                133P    107
0.310927158,0.04353778,0.,0.355884763,0.024915731,0.,                133P    108
0.403611501,0.015422292,0.,0.451338239,0.005928854,0.,0.5,           133P    109
0.005928854,0.,0.548661761,0.005928854,0.,0.596388499,               133P    110
0.015422292,0.,0.644115237,0.024915731,0.,0.689072842,               133P    111
0.04353778,0.,0.734030447,0.06215983,0.,0.774491222,                 133P    112
0.089194856,0.,0.814951997,0.116229881,0.,0.849361058,               133P    113
0.150638942,0.,0.883770119,0.185048003,0.,0.910805144,               133P    114
0.225508778,0.,0.93784017,0.265969553,0.,0.95646222,                 133P    115
0.310927158,0.,0.975084269,0.355884763,0.,0.984577708,               133P    116
0.403611501,0.,0.994071146,0.451338239,0.,0.994071146,0.5,0.,        133P    117
0.,1.,0.,0.,-1.;                                                     133P    118
100,30.,0.,0.,-2.,0.,2.,0.;                                          135P    119
126,32,2,1,0,1,0,0.,0.,0.,0.0625,0.0625,0.125,0.125,0.1875,          137P    120
0.1875,0.25,0.25,0.3125,0.3125,0.375,0.375,0.4375,0.4375,0.5,        137P    121
0.5,0.5625,0.5625,0.625,0.625,0.6875,0.6875,0.75,0.75,0.8125,        137P    122
0.8125,0.875,0.875,0.9375,0.9375,1.,1.,1.,1.,1.,1.,1.,1.,1.,1.,      137P    123
1.,1.,1.,1.,1.,1.,1.,1.,1.,1.,1.,1.,1.,1.,1.,1.,1.,1.,1.,1.,1.,      137P    124
1.,1.,1.,1.,1.,0.994071146,0.5,0.,0.994071146,0.548661761,0.,        137P    125
0.984577708,0.596388499,0.,0.975084269,0.644115237,0.,               137P    126
0.95646222,0.689072842,0.,0.93784017,0.734030447,0.,                 137P    127
0.910805144,0.774491222,0.,0.883770119,0.814951997,0.,               137P    128
0.849361058,0.849361058,0.,0.814951997,0.883770119,0.,               137P    129
0.774491222,0.910805144,0.,0.734030447,0.93784017,0.,                137P    130
0.689072842,0.95646222,0.,0.644115237,0.975084269,0.,                137P    131
0.596388499,0.984577708,0.,0.548661761,0.994071146,0.,0.5,           137P    132
0.994071146,0.,0.451338239,0.994071146,0.,0.403611501,               137P    133
0.984577708,0.,0.355884763,0.975084269,0.,0.310927158,               137P    134
0.95646222,0.,0.265969553,0.93784017,0.,0.225508778,                 137P    135
0.910805144,0.,0.185048003,0.883770119,0.,0.150638942,               137P    136
0.849361058,0.,0.116229881,0.814951997,0.,0.089194856,               137P    137
0.774491222,0.,0.06215983,0.734030447,0.,0.04353778,                 137P    138
0.689072842,0.,0.024915731,0.644115237,0.,0.015422292,               137P    139
0.596388499,0.,0.005928854,0.548661761,0.,0.005928854,0.5,0.,        137P    140
0.,1.,0.,0.,-1.;                                                     137P    141
100,30.,0.,0.,2.,0.,-2.,0.;                                          139P    142
102,2,133,137;                                                       141P    143
102,2,135,139;                                                       143P    144
142,1,131,141,143,1;                                                 145P    145
144,131,1,0,145;                                                     147P    146
128,1,1,1,1,0,0,1,0,0,0.,0.,1.,1.,0.,0.,1.,1.,1.,1.,1.,1.,           149P    147
-2.024,-2.024,0.,2.024,-2.024,0.,-2.024,2.024,0.,2.024,2.024,        149P    148
0.,0.,1.,0.,1.;                                                      149P    149
126,32,2,1,0,1,0,0.,0.,0.,0.0625,0.0625,0.125,0.125,0.1875,          151P    150
0.1875,0.25,0.25,0.3125,0.3125,0.375,0.375,0.4375,0.4375,0.5,        151P    151
0.5,0.5625,0.5625,0.625,0.625,0.6875,0.6875,0.75,0.75,0.8125,        151P    152
0.8125,0.875,0.875,0.9375,0.9375,1.,1.,1.,1.,1.,1.,1.,1.,1.,1.,      151P    153
1.,1.,1.,1.,1.,1.,1.,1.,1.,1.,1.,1.,1.,1.,1.,1.,1.,1.,1.,1.,1.,      151P    154
1.,1.,1.,1.,1.,0.994071146,0.5,0.,0.994071146,0.548661761,0.,        151P    155
0.984577708,0.596388499,0.,0.975084269,0.644115237,0.,               151P    156
0.95646222,0.689072842,0.,0.93784017,0.734030447,0.,                 151P    157
0.910805144,0.774491222,0.,0.883770119,0.814951997,0.,               151P    158
0.849361058,0.849361058,0.,0.814951997,0.883770119,0.,               151P    159
0.774491222,0.910805144,0.,0.734030447,0.93784017,0.,                151P    160
0.689072842,0.95646222,0.,0.644115237,0.975084269,0.,                151P    161
0.596388499,0.984577708,0.,0.548661761,0.994071146,0.,0.5,           151P    162
0.994071146,0.,0.451338239,0.994071146,0.,0.403611501,               151P    163
0.984577708,0.,0.355884763,0.975084269,0.,0.310927158,               151P    164
0.95646222,0.,0.265969553,0.93784017,0.,0.225508778,                 151P    165
0.910805144,0.,0.185048003,0.883770119,0.,0.150638942,               151P    166
0.849361058,0.,0.116229881,0.814951997,0.,0.089194856,               151P    167
0.774491222,0.,0.06215983,0.734030447,0.,0.04353778,                 151P    168
0.689072842,0.,0.024915731,0.644115237,0.,0.015422292,               151P    169
0.596388499,0.,0.005928854,0.548661761,0.,0.005928854,0.5,0.,        151P    170
0.,1.,0.,0.,-1.;                                                     151P    171
100,0.,0.,0.,2.,0.,-2.,0.;                                           153P    172
126,32,2,1,0,1,0,0.,0.,0.,0.0625,0.0625,0.125,0.125,0.1875,          155P    173
0.1875,0.25,0.25,0.3125,0.3125,0.375,0.375,0.4375,0.4375,0.5,        155P    174
0.5,0.5625,0.5625,0.625,0.625,0.6875,0.6875,0.75,0.75,0.8125,        155P    175
0.8125,0.875,0.875,0.9375,0.9375,1.,1.,1.,1.,1.,1.,1.,1.,1.,1.,      155P    176
1.,1.,1.,1.,1.,1.,1.,1.,1.,1.,1.,1.,1.,1.,1.,1.,1.,1.,1.,1.,1.,      155P    177
1.,1.,1.,1.,1.,0.005928854,0.5,0.,0.005928854,0.451338239,0.,        155P    178
0.015422292,0.403611501,0.,0.024915731,0.355884763,0.,               155P    179
0.04353778,0.310927158,0.,0.06215983,0.265969553,0.,                 155P    180
0.089194856,0.225508778,0.,0.116229881,0.185048003,0.,               155P    181
0.150638942,0.150638942,0.,0.185048003,0.116229881,0.,               155P    182
0.225508778,0.089194856,0.,0.265969553,0.06215983,0.,                155P    183
0.310927158,0.04353778,0.,0.355884763,0.024915731,0.,                155P    184
0.403611501,0.015422292,0.,0.451338239,0.005928854,0.,0.5,           155P    185
0.005928854,0.,0.548661761,0.005928854,0.,0.596388499,               155P    186
0.015422292,0.,0.644115237,0.024915731,0.,0.689072842,               155P    187
0.04353778,0.,0.734030447,0.06215983,0.,0.774491222,                 155P    188
0.089194856,0.,0.814951997,0.116229881,0.,0.849361058,               155P    189
0.150638942,0.,0.883770119,0.185048003,0.,0.910805144,               155P    190
0.225508778,0.,0.93784017,0.265969553,0.,0.95646222,                 155P    191
0.310927158,0.,0.975084269,0.355884763,0.,0.984577708,               155P    192
0.403611501,0.,0.994071146,0.451338239,0.,0.994071146,0.5,0.,        155P    193
0.,1.,0.,0.,-1.;                                                     155P    194
100,0.,0.,0.,-2.,0.,2.,0.;                                           157P    195
102,2,151,155;                                                       159P    196
102,2,153,157;                                                       161P    197
142,1,149,159,161,1;                                                 163P    198
144,149,1,0,163;                                                     165P    199
110,0.,0.,1030.,0.,0.,30.;                                           167P    200
110,-2.,0.,30.,-2.5,0.,29.5;                                         169P    201
120,167,169,0.,6.28318530717959;                                     171P    202
126,1,1,1,0,1,0,0.,0.,1.,1.,1.,1.,1.,3.141592654,0.,0.,              173P    203
3.141592654,0.,0.,1.,0.,0.,1.;                                       173P    204
110,2.5,0.,29.5,2.,0.,30.;                                           175P    205
126,1,1,1,0,1,0,0.,0.,1.,1.,1.,1.,0.,3.141592654,0.,0.,              177P    206
6.283185307,0.,0.,1.,0.,0.,1.;                                       177P    207
124,1.,-7.105427357601E-15,0.,0.,-7.105427357601E-15,-1.,            179P    208
6.98296267768627E-15,-2.09488880330588E-13,                          179P    209
-4.96169340471387E-29,-6.98296267768627E-15,-1.,60.;                 179P    210
100,30.,0.,0.,2.,0.,-2.,0.;                                          181P    211
126,1,1,1,0,1,0,0.,0.,1.,1.,1.,1.,0.,6.283185307,0.,1.,              183P    212
6.283185307,0.,0.,1.,0.,0.,1.;                                       183P    213
110,-2.,0.,30.,-2.5,0.,29.5;                                         185P    214
126,1,1,1,0,1,0,0.,0.,1.,1.,1.,1.,1.,6.283185307,0.,1.,              187P    215
3.141592654,0.,0.,1.,0.,0.,1.;                                       187P    216
100,29.5,0.,0.,-2.5,0.,2.5,0.;                                       189P    217
102,4,173,177,183,187;                                               191P    218
102,4,175,181,185,189;                                               193P    219
142,1,171,191,193,1;                                                 195P    220
144,171,1,0,195;                                                     197P    221
110,0.,0.,-999.5,0.,0.,0.5;                                          199P    222
110,2.,0.,0.,2.5,0.,0.5;                                             201P    223
120,199,201,0.,6.28318530717959;                                     203P    224
126,1,1,1,0,1,0,0.,0.,1.,1.,1.,1.,1.,3.141592654,0.,0.,              205P    225
3.141592654,0.,0.,1.,0.,0.,1.;                                       205P    226
110,-2.5,0.,0.5,-2.,0.,0.;                                           207P    227
126,1,1,1,0,1,0,0.,0.,1.,1.,1.,1.,0.,3.141592654,0.,0.,              209P    228
6.283185307,0.,0.,1.,0.,0.,1.;                                       209P    229
100,0.,0.,0.,-2.,0.,2.,0.;                                           211P    230
126,1,1,1,0,1,0,0.,0.,1.,1.,1.,1.,0.,6.283185307,0.,1.,              213P    231
6.283185307,0.,0.,1.,0.,0.,1.;                                       213P    232
110,2.,0.,0.,2.5,0.,0.5;                                             215P    233
126,1,1,1,0,1,0,0.,0.,1.,1.,1.,1.,1.,6.283185307,0.,1.,              217P    234
3.141592654,0.,0.,1.,0.,0.,1.;                                       217P    235
124,1.,-7.105427357601E-15,0.,0.,-7.105427357601E-15,-1.,            219P    236
6.98296267768627E-15,-3.49148133884316E-15,                          219P    237
-4.96169340471387E-29,-6.98296267768627E-15,-1.,                     219P    238
1.00000000000001;                                                    219P    239
100,0.5,0.,0.,2.5,0.,-2.5,0.;                                        221P    240
102,4,205,209,213,217;                                               223P    241
102,4,207,211,215,221;                                               225P    242
142,1,203,223,225,1;                                                 227P    243
144,203,1,0,227;                                                     229P    244
S      1G      4D    230P    244                                        T      1
